<?xml version="1.0" encoding="UTF-8" standalone="no"?>
<!-- Created with Inkscape (http://www.inkscape.org/) -->

<svg
   width="63.999996"
   height="63.999996"
   viewBox="0 0 16.933332 16.933332"
   version="1.1"
   id="svg1"
   xml:space="preserve"
   xmlns="http://www.w3.org/2000/svg"
   xmlns:svg="http://www.w3.org/2000/svg"><defs
     id="defs1" /><g
     id="layer1"><path
       style="fill:#006bd6;fill-opacity:1;stroke-width:9.709;stroke-dasharray:none"
       id="rect2"
       width="16.933332"
       height="16.933332"
       x="0"
       y="0"
       d="m 4,0 h 8.933332 a 4,4 45 0 1 4,4 v 8.933332 a 4,4 135 0 1 -4,4 H 4 a 4,4 45 0 1 -4,-4 V 4 A 4,4 135 0 1 4,0 Z" /><g
       style="fill:#e6e9ed;fill-opacity:1"
       id="g2"
       transform="matrix(0.00739089,0,0,0.00739089,5.3560734,6.884633)"><path
         d="M 422,-232 629,-480 H 469 l 29,-227 -185,267 H 452 Z M 320,-80 360,-360 H 160 l 360,-520 h 80 l -40,320 H 800 L 400,-80 Z m 151,-390 z"
         id="path1-4"
         style="fill:#e6e9ed;fill-opacity:1" /></g><g
       style="fill:#e6e9ed;fill-opacity:1"
       id="g1"
       transform="matrix(0.01709404,0,0,0.01709404,0.26152747,22.039565)"><path
         d="m 160,-360 q -50,0 -85,-35 -35,-35 -35,-85 0,-50 35,-85 35,-35 85,-35 v -80 q 0,-33 23.5,-56.5 Q 207,-760 240,-760 h 120 q 0,-50 35,-85 35,-35 85,-35 50,0 85,35 35,35 35,85 h 120 q 33,0 56.5,23.5 23.5,23.5 23.5,56.5 v 80 q 50,0 85,35 35,35 35,85 0,50 -35,85 -35,35 -85,35 v 160 q 0,33 -23.5,56.5 Q 753,-120 720,-120 H 240 q -33,0 -56.5,-23.5 Q 160,-167 160,-200 Z m 200,-80 q 25,0 42.5,-17.5 Q 420,-475 420,-500 420,-525 402.5,-542.5 385,-560 360,-560 q -25,0 -42.5,17.5 -17.5,17.5 -17.5,42.5 0,25 17.5,42.5 17.5,17.5 42.5,17.5 z m 240,0 q 25,0 42.5,-17.5 Q 660,-475 660,-500 660,-525 642.5,-542.5 625,-560 600,-560 q -25,0 -42.5,17.5 -17.5,17.5 -17.5,42.5 0,25 17.5,42.5 17.5,17.5 42.5,17.5 z m -280,160 h 320 v -80 H 320 Z m -80,80 H 720 V -680 H 240 Z m 240,-240 z"
         id="path1"
         style="fill:#e6e9ed;fill-opacity:1" /></g></g></svg>
